# xmcd CD database file generated by freedbAccess_ocx
#
# Track frame offsets:
#       150
#       16302
#       33466
#       62150
#       77568
#       92746
#       128078
#       157902
#       170867
#       186851
#       200335
#       214648
#       228821
#       269809
#       287832
#       302772
#
# Disc length: 4252 seconds
#
# Revision: 0
# Processed by: cddbd v1.5.2PL0 Copyright (c) Steve Scherf et al.
# Submitted via: CDnGo 2.00
#
DISCID=dd109a10
DTITLE=Lilo Wanders praesentiert ... - Wa(h)re Liebe Vol.2 CD2
DYEAR=1998
DGENRE=pop
TTITLE0=Faithless - God Is A DJ
TTITLE1=Hollis P. Monroe - I'm Lonely
TTITLE2=Ayla - Liebe
TTITLE3=K.K. Project - Set Me Free - Davids Song
TTITLE4=Justine Earp - Ooo-LaLaLa '98
TTITLE5=State Of Mind - Take Control (M&S Epic Club Mix)
TTITLE6=Kathy Brown - Happy People
TTITLE7=Dub-Brice - P.L.A.Y.
TTITLE8=Sonique - I Put A Spell On You
TTITLE9=Kay Cee - Love Stimulation (Love Radio Mix)
TTITLE10=Touch and Go - Would You ...?
TTITLE11=The Tamperer feat. Maya - If You Buy This Record Your Life Will Be Better
TTITLE12=Blaxxun - Eclipse (Sunrise Mix)
TTITLE13=ZE.Express - I've Got To Run
TTITLE14=Jeux Floreaux - Body Work
TTITLE15=Mike Koglin - The Silence
EXTD=
EXTT0=
EXTT1=
EXTT2=
EXTT3=
EXTT4=
EXTT5=
EXTT6=
EXTT7=
EXTT8=
EXTT9=
EXTT10=
EXTT11=
EXTT12=
EXTT13=
EXTT14=
EXTT15=
PLAYORDER=
